<svg width="268" height="131" viewBox="0 0 268 131" fill="none" xmlns="http://www.w3.org/2000/svg">
<ellipse cx="58.3138" cy="52.2189" rx="9.83134" ry="9.46249" transform="rotate(20 58.3138 52.2189)" fill="#40CA99"/>
<path opacity="0.2" d="M67.5522 55.5814C63.0837 67.8585 49.1208 74.0474 36.3652 69.4047C23.6096 64.7621 16.8915 51.0459 21.36 38.7689C25.8285 26.4918 39.7914 20.3029 52.547 24.9456C65.3026 29.5882 72.0207 43.3044 67.5522 55.5814Z" fill="#40CA99"/>
<ellipse opacity="0.4" cx="49.0753" cy="48.8565" rx="19.6627" ry="18.925" transform="rotate(20 49.0753 48.8565)" fill="#40CA99"/>
<ellipse opacity="0.6" cx="53.6946" cy="50.5376" rx="14.747" ry="14.1937" transform="rotate(20 53.6946 50.5376)" fill="#40CA99"/>
<ellipse opacity="0.8" cx="62.933" cy="53.9001" rx="4.91567" ry="4.73124" transform="rotate(20 62.933 53.9001)" fill="#40CA99"/>
<ellipse opacity="0.6" cx="14.3341" cy="14.6107" rx="14.3341" ry="14.6107" transform="matrix(-0.190084 -0.981768 0.987523 -0.157476 70.1811 72.792)" fill="#40CA99"/>
<ellipse cx="4.77802" cy="4.87022" rx="4.77802" ry="4.87022" transform="matrix(-0.190084 -0.981768 0.987523 -0.157476 68.3647 63.4102)" fill="#40CA99"/>
<ellipse opacity="0.2" cx="23.8901" cy="24.3511" rx="23.8901" ry="24.3511" transform="matrix(-0.190084 -0.981768 0.987523 -0.157476 71.9975 82.1738)" fill="#40CA99"/>
<ellipse opacity="0.4" cx="19.1121" cy="19.4809" rx="19.1121" ry="19.4809" transform="matrix(-0.190084 -0.981768 0.987523 -0.157476 71.0893 77.4829)" fill="#40CA99"/>
<ellipse opacity="0.8" cx="9.55604" cy="9.74044" rx="9.55604" ry="9.74044" transform="matrix(-0.190084 -0.981768 0.987523 -0.157476 69.2729 68.1011)" fill="#40CA99"/>
<ellipse opacity="0.2" cx="24.5177" cy="23.7191" rx="24.5177" ry="23.7191" transform="matrix(0.995331 0.0965189 -0.0774692 0.996995 40.5445 60.7968)" fill="#40CA99"/>
<ellipse opacity="0.8" cx="9.80707" cy="9.48764" rx="9.80707" ry="9.48764" transform="matrix(0.995331 0.0965189 -0.0774692 0.996995 55.1864 62.2166)" fill="#40CA99"/>
<ellipse opacity="0.4" cx="19.6141" cy="18.9753" rx="19.6141" ry="18.9753" transform="matrix(0.995331 0.0965189 -0.0774692 0.996995 45.4251 61.2701)" fill="#40CA99"/>
<ellipse cx="4.90353" cy="4.74382" rx="4.90353" ry="4.74382" transform="matrix(0.995331 0.0965189 -0.0774692 0.996995 60.067 62.6898)" fill="#40CA99"/>
<ellipse opacity="0.6" cx="14.7106" cy="14.2315" rx="14.7106" ry="14.2315" transform="matrix(0.995331 0.0965189 -0.0774692 0.996995 50.3058 61.7434)" fill="#40CA99"/>
<ellipse cx="4.87022" cy="4.77802" rx="4.87022" ry="4.77802" transform="matrix(0.655262 0.755401 -0.776681 0.629894 65.4335 58.5144)" fill="#40CA99"/>
<ellipse cx="4.87022" cy="4.77802" rx="4.87022" ry="4.77802" transform="matrix(0.655262 0.755401 -0.776681 0.629894 62.8732 51.1902)" fill="#40CA99"/>
<ellipse cx="4.87022" cy="4.77802" rx="4.87022" ry="4.77802" transform="matrix(0.655262 0.755401 -0.776681 0.629894 71.3711 53.699)" fill="#40CA99"/>
<path d="M138.008 76.952L136.728 77.432L132.792 71.672H124.504V81.24H129.016L131.384 77.336H132.696V86.328L131.096 87.128L129.08 83.064H124.504V92.12L129.688 93.4L128.888 95H116.76V93.688L119.768 91.32V72.536L116.376 71.448L117.176 69.848H136.056L138.008 69.272V76.952ZM150.883 95H141.475V93.688L144.323 91.384V82.808L141.475 80.856V79.544L147.267 77.304H148.803V92.344L151.683 93.4L150.883 95ZM146.467 67.672C147.214 67.672 147.832 67.9387 148.323 68.472C148.814 68.984 149.059 69.624 149.059 70.392C149.059 70.9253 148.878 71.4373 148.515 71.928C148.174 72.3973 147.736 72.7707 147.203 73.048C146.691 73.3253 146.19 73.464 145.699 73.464C144.952 73.464 144.334 73.208 143.843 72.696C143.352 72.184 143.107 71.544 143.107 70.776C143.107 70.2213 143.278 69.7093 143.619 69.24C143.982 68.7707 144.419 68.3973 144.931 68.12C145.464 67.8213 145.976 67.672 146.467 67.672ZM162.962 95H153.554V93.688L156.402 91.384V72.568L153.554 70.616V69.304L159.346 67.064H160.882V92.344L163.762 93.4L162.962 95ZM178 94.968C177.019 95.2027 175.814 95.32 174.384 95.32C172.912 95.32 171.59 94.9573 170.416 94.232C169.264 93.4853 168.358 92.4827 167.696 91.224C167.035 89.944 166.704 88.536 166.704 87C166.704 85.336 167.216 83.7893 168.24 82.36C169.286 80.9093 170.587 79.7573 172.144 78.904C173.702 78.0293 175.206 77.592 176.656 77.592C178.768 77.592 180.411 78.4133 181.584 80.056C182.758 81.6987 183.334 83.9067 183.312 86.68H171.568C171.739 88.3013 172.219 89.6133 173.008 90.616C173.819 91.6187 174.907 92.12 176.272 92.12C177.702 92.12 179.75 91.1707 182.416 89.272L183.344 90.744L178 94.968ZM174.832 80.664C172.72 80.664 171.611 82.1253 171.504 85.048H178.448C178.278 84.0027 178.086 83.192 177.872 82.616C177.68 82.0187 177.339 81.5493 176.848 81.208C176.379 80.8453 175.707 80.664 174.832 80.664ZM209.693 73.592V95H207.517L192.413 76.6V91.704L196.253 93.4L195.453 95H187.229V93.688L190.237 91.256V73.304L186.845 71.448L187.645 69.848H192.797L207.517 87.736V73.08L203.709 71.448L204.509 69.848H212.733V71.16L209.693 73.592ZM227.094 94.968C226.113 95.2027 224.907 95.32 223.478 95.32C222.006 95.32 220.683 94.9573 219.51 94.232C218.358 93.4853 217.451 92.4827 216.79 91.224C216.129 89.944 215.798 88.536 215.798 87C215.798 85.336 216.31 83.7893 217.334 82.36C218.379 80.9093 219.681 79.7573 221.238 78.904C222.795 78.0293 224.299 77.592 225.75 77.592C227.862 77.592 229.505 78.4133 230.678 80.056C231.851 81.6987 232.427 83.9067 232.406 86.68H220.662C220.833 88.3013 221.313 89.6133 222.102 90.616C222.913 91.6187 224.001 92.12 225.366 92.12C226.795 92.12 228.843 91.1707 231.51 89.272L232.438 90.744L227.094 94.968ZM223.926 80.664C221.814 80.664 220.705 82.1253 220.598 85.048H227.542C227.371 84.0027 227.179 83.192 226.966 82.616C226.774 82.0187 226.433 81.5493 225.942 81.208C225.473 80.8453 224.801 80.664 223.926 80.664ZM246.083 91.288C246.083 90.776 245.763 90.2853 245.123 89.816C244.504 89.3467 243.555 88.7707 242.275 88.088C240.611 87.192 239.331 86.392 238.435 85.688C237.539 84.9627 237.091 84.12 237.091 83.16C237.091 82.392 237.432 81.5707 238.115 80.696C238.797 79.8213 239.629 79.0853 240.611 78.488C241.613 77.8907 242.531 77.592 243.363 77.592C244.387 77.592 245.571 77.72 246.915 77.976C248.28 78.2107 249.272 78.4773 249.891 78.776V83.864H248.355C247.736 82.648 246.989 81.6987 246.115 81.016C245.261 80.3333 244.387 79.992 243.491 79.992C242.915 79.992 242.456 80.152 242.115 80.472C241.773 80.7707 241.603 81.144 241.603 81.592C241.603 82.168 241.923 82.7013 242.562 83.192C243.224 83.6827 244.216 84.28 245.539 84.984C246.648 85.5813 247.523 86.0933 248.163 86.52C248.824 86.9253 249.389 87.4053 249.859 87.96C250.328 88.4933 250.562 89.0907 250.562 89.752C250.562 90.5413 250.2 91.3733 249.475 92.248C248.771 93.1013 247.907 93.8267 246.883 94.424C245.88 95.0213 244.952 95.32 244.099 95.32C242.989 95.32 241.677 95.2027 240.163 94.968C238.669 94.712 237.603 94.4347 236.963 94.136V88.952H238.499C239.203 90.2107 240.045 91.192 241.027 91.896C242.029 92.5787 243.032 92.92 244.035 92.92C244.632 92.92 245.123 92.76 245.507 92.44C245.891 92.12 246.083 91.736 246.083 91.288ZM263.83 95.064C263.254 95.2347 262.55 95.32 261.718 95.32C259.819 95.32 258.432 94.8613 257.558 93.944C256.704 93.0053 256.278 91.5653 256.278 89.624V80.504H252.822V79.032L259.222 71.8H260.758V78.872H266.518V80.504H260.758V89.752C260.758 90.6053 260.96 91.224 261.366 91.608C261.792 91.992 262.422 92.184 263.254 92.184C263.702 92.184 264.128 92.1093 264.534 91.96C264.96 91.7893 265.483 91.48 266.102 91.032L267.062 92.504L263.83 95.064Z" fill="#40CA99"/>
</svg>
