<svg width="134" height="131" viewBox="0 0 134 131" fill="none" xmlns="http://www.w3.org/2000/svg">
<ellipse cx="57.4196" cy="52.1295" rx="9.83134" ry="9.46249" transform="rotate(20 57.4196 52.1295)" fill="#40CA99"/>
<path opacity="0.2" d="M66.6581 55.492C62.1896 67.7691 48.2267 73.958 35.4711 69.3153C22.7154 64.6726 15.9974 50.9565 20.4659 38.6794C24.9344 26.4024 38.8972 20.2135 51.6529 24.8562C64.4085 29.4988 71.1266 43.215 66.6581 55.492Z" fill="#40CA99"/>
<ellipse opacity="0.4" cx="48.1812" cy="48.767" rx="19.6627" ry="18.925" transform="rotate(20 48.1812 48.767)" fill="#40CA99"/>
<ellipse opacity="0.6" cx="52.8004" cy="50.4483" rx="14.747" ry="14.1937" transform="rotate(20 52.8004 50.4483)" fill="#40CA99"/>
<ellipse opacity="0.8" cx="62.0389" cy="53.8107" rx="4.91567" ry="4.73124" transform="rotate(20 62.0389 53.8107)" fill="#40CA99"/>
<ellipse opacity="0.6" cx="14.3341" cy="14.6107" rx="14.3341" ry="14.6107" transform="matrix(-0.190084 -0.981768 0.987523 -0.157476 69.2869 72.7025)" fill="#40CA99"/>
<ellipse cx="4.77802" cy="4.87022" rx="4.77802" ry="4.87022" transform="matrix(-0.190084 -0.981768 0.987523 -0.157476 67.4705 63.3207)" fill="#40CA99"/>
<ellipse opacity="0.2" cx="23.8901" cy="24.3511" rx="23.8901" ry="24.3511" transform="matrix(-0.190084 -0.981768 0.987523 -0.157476 71.1034 82.0843)" fill="#40CA99"/>
<ellipse opacity="0.4" cx="19.1121" cy="19.4809" rx="19.1121" ry="19.4809" transform="matrix(-0.190084 -0.981768 0.987523 -0.157476 70.1952 77.3934)" fill="#40CA99"/>
<ellipse opacity="0.8" cx="9.55604" cy="9.74044" rx="9.55604" ry="9.74044" transform="matrix(-0.190084 -0.981768 0.987523 -0.157476 68.3787 68.0116)" fill="#40CA99"/>
<ellipse opacity="0.2" cx="24.5177" cy="23.7191" rx="24.5177" ry="23.7191" transform="matrix(0.995331 0.0965189 -0.0774692 0.996995 39.6504 60.7073)" fill="#40CA99"/>
<ellipse opacity="0.8" cx="9.80707" cy="9.48764" rx="9.80707" ry="9.48764" transform="matrix(0.995331 0.0965189 -0.0774692 0.996995 54.2923 62.1271)" fill="#40CA99"/>
<ellipse opacity="0.4" cx="19.6141" cy="18.9753" rx="19.6141" ry="18.9753" transform="matrix(0.995331 0.0965189 -0.0774692 0.996995 44.531 61.1806)" fill="#40CA99"/>
<ellipse cx="4.90353" cy="4.74382" rx="4.90353" ry="4.74382" transform="matrix(0.995331 0.0965189 -0.0774692 0.996995 59.1729 62.6004)" fill="#40CA99"/>
<ellipse opacity="0.6" cx="14.7106" cy="14.2315" rx="14.7106" ry="14.2315" transform="matrix(0.995331 0.0965189 -0.0774692 0.996995 49.4116 61.6539)" fill="#40CA99"/>
<ellipse cx="4.87022" cy="4.77802" rx="4.87022" ry="4.77802" transform="matrix(0.655262 0.755401 -0.776681 0.629894 64.5394 58.4248)" fill="#40CA99"/>
<ellipse cx="4.87022" cy="4.77802" rx="4.87022" ry="4.77802" transform="matrix(0.655262 0.755401 -0.776681 0.629894 61.9791 51.1006)" fill="#40CA99"/>
<ellipse cx="4.87022" cy="4.77802" rx="4.87022" ry="4.77802" transform="matrix(0.655262 0.755401 -0.776681 0.629894 70.477 53.6094)" fill="#40CA99"/>
</svg>
